<svg xmlns="http://www.w3.org/2000/svg" enable-background="new 0 0 32 32" viewBox="0 0 32 32" id="controller"><path d="M29.1,19.2l-1.6-8.3c0,0,0-0.1,0-0.1c0,0,0,0,0,0c0,0,0,0,0,0c-0.3-2.4-2.4-4.3-4.9-4.3h-13c-2.5,0-4.6,1.8-4.9,4.3
		c0,0,0,0,0,0c0,0,0,0.1,0,0.1l-1.7,8.3c-0.2,1.2,0.2,2.5,1.3,3.3c0.6,0.4,1.3,0.7,2,0.7c0.2,0,0.5,0,0.7-0.1
		c0.9-0.2,1.7-0.8,2.2-1.6l2.7-4.9h8.5l2.7,4.9c0.5,0.8,1.3,1.4,2.2,1.6c0.2,0,0.5,0.1,0.7,0.1c0.7,0,1.4-0.2,2-0.7
		C28.9,21.7,29.4,20.4,29.1,19.2z M8,11h1v-1c0-0.3,0.2-0.5,0.5-0.5S10,9.7,10,10v1h1c0.3,0,0.5,0.2,0.5,0.5S11.3,12,11,12h-1v1
		c0,0.3-0.2,0.5-0.5,0.5S9,13.3,9,13v-1H8c-0.3,0-0.5-0.2-0.5-0.5S7.7,11,8,11z M22.5,12c0.3,0,0.5,0.2,0.5,0.5S22.8,13,22.5,13
		S22,12.8,22,12.5S22.2,12,22.5,12z M22,10.5c0-0.3,0.2-0.5,0.5-0.5s0.5,0.2,0.5,0.5S22.8,11,22.5,11S22,10.8,22,10.5z M21.5,12
		c-0.3,0-0.5-0.2-0.5-0.5s0.2-0.5,0.5-0.5s0.5,0.2,0.5,0.5S21.8,12,21.5,12z M23.5,12c-0.3,0-0.5-0.2-0.5-0.5s0.2-0.5,0.5-0.5
		s0.5,0.2,0.5,0.5S23.8,12,23.5,12z"></path></svg>